<?xml version="1.0" standalone="no"?>
<!DOCTYPE svg PUBLIC "-//W3C//DTD SVG 20010904//EN"
 "http://www.w3.org/TR/2001/REC-SVG-20010904/DTD/svg10.dtd">
<svg version="1.0" xmlns="http://www.w3.org/2000/svg"
 width="286.000000pt" height="370.000000pt" viewBox="0 0 286.000000 370.000000"
 preserveAspectRatio="xMidYMid meet">

<g transform="translate(0.000000,370.000000) scale(0.100000,-0.100000)"
fill="#000000" stroke="none">
<path d="M490 3616 c-93 -25 -181 -103 -227 -201 l-28 -60 -3 -702 -3 -703
-44 0 c-55 0 -109 -43 -125 -98 -13 -50 -13 -904 0 -954 14 -50 68 -95 125
-103 l45 -7 0 -98 c0 -115 21 -193 70 -264 40 -59 133 -121 203 -136 37 -8
338 -10 1037 -8 l985 3 56 28 c65 32 142 109 169 170 38 85 40 145 40 1236 l0
1064 -427 423 -428 423 -700 0 c-521 0 -712 -3 -745 -13z m1362 -468 c3 -226
6 -269 21 -303 25 -55 70 -99 131 -127 49 -22 61 -23 301 -23 l250 0 2 -1050
c3 -1038 3 -1050 -17 -1083 -40 -65 7 -62 -1037 -62 -922 0 -949 1 -980 20
-54 32 -66 61 -71 170 l-5 100 879 2 c859 3 880 3 912 23 19 11 42 37 53 57
18 35 19 65 19 499 0 440 -1 465 -20 503 -36 76 34 70 -950 76 l-885 5 0 682
c0 674 0 682 21 710 48 65 22 63 731 63 l642 0 3 -262z m-1116 -1503 c84 -25
124 -82 124 -177 0 -112 -87 -185 -230 -196 l-70 -5 0 -103 0 -104 -65 0 -65
0 0 294 0 295 23 4 c57 11 236 6 283 -8z m589 -14 c107 -48 155 -127 155 -257
0 -47 -6 -99 -16 -127 -22 -64 -82 -130 -144 -156 -65 -28 -204 -44 -295 -34
l-70 8 -3 292 -2 292 27 4 c16 3 89 4 163 3 116 -2 142 -5 185 -25z m615 -26
l0 -55 -115 0 -115 0 0 -70 0 -70 110 0 110 0 0 -55 0 -55 -110 0 -110 0 0
-120 0 -120 -65 0 -65 0 0 300 0 300 180 0 180 0 0 -55z"/>
<path d="M567 1553 c-4 -3 -7 -44 -7 -89 l0 -83 33 -6 c69 -13 137 35 137 97
0 59 -34 88 -103 88 -29 0 -57 -3 -60 -7z"/>
<path d="M1090 1360 l0 -200 57 0 c72 0 130 27 163 77 22 32 25 47 25 127 0
80 -3 95 -24 125 -32 44 -92 71 -163 71 l-58 0 0 -200z"/>
</g>
</svg>
